<svg width="65" height="66" viewBox="0 0 65 66" fill="none" xmlns="http://www.w3.org/2000/svg">
<circle cx="32.5" cy="32.6077" r="32.5" fill="#0156FF"/>
<g clip-path="url(#clip0_1178_1809)">
<path d="M35.82 44.7559L33 47.5759L30.18 44.7559C24.6375 43.4759 20.5 38.5059 20.5 32.5759C20.5 25.6759 26.1 20.0759 33 20.0759C39.9 20.0759 45.5 25.6759 45.5 32.5759C45.5 38.5059 41.3625 43.4759 35.82 44.7559ZM25.5287 36.8459C27.3637 39.5834 30.1187 41.3259 33.2 41.3259C36.28 41.3259 39.0362 39.5847 40.87 36.8459C38.7897 34.9017 36.0474 33.8219 33.2 33.8259C30.3521 33.8216 27.6094 34.9014 25.5287 36.8459ZM33 31.3259C33.9946 31.3259 34.9484 30.9308 35.6517 30.2276C36.3549 29.5243 36.75 28.5705 36.75 27.5759C36.75 26.5814 36.3549 25.6275 35.6517 24.9243C34.9484 24.221 33.9946 23.8259 33 23.8259C32.0054 23.8259 31.0516 24.221 30.3483 24.9243C29.6451 25.6275 29.25 26.5814 29.25 27.5759C29.25 28.5705 29.6451 29.5243 30.3483 30.2276C31.0516 30.9308 32.0054 31.3259 33 31.3259Z" fill="white"/>
</g>
<defs>
<clipPath id="clip0_1178_1809">
<rect width="30" height="30" fill="white" transform="translate(18 17.5759)"/>
</clipPath>
</defs>
</svg>
