<svg width="65" height="66" viewBox="0 0 65 66" fill="none" xmlns="http://www.w3.org/2000/svg">
<circle cx="32.5" cy="32.6077" r="32.5" fill="#0156FF"/>
<g clip-path="url(#clip0_1178_1833)">
<path d="M45.2047 21.1023C45.1293 20.9145 44.9844 20.763 44.8001 20.6793C44.6158 20.5956 44.4063 20.5862 44.2152 20.653C44.0242 20.7198 43.8662 20.8577 43.7742 21.038C43.6823 21.2183 43.6633 21.4271 43.7214 21.621C44.9291 25.092 42.5319 27.6842 40.7041 29.0726L39.9657 28.0144C39.7174 27.6595 39.1623 27.3644 38.7307 27.3592L34.5863 27.3774C34.08 27.3927 33.5873 27.5445 33.1602 27.8168L20.948 36.3799C20.6639 36.5798 20.4707 36.8841 20.4105 37.2262C20.3503 37.5683 20.4281 37.9203 20.6269 38.2051L26.1766 46.1455C26.5926 46.737 27.2569 46.6655 27.8497 46.2521L40.0619 37.6877C40.4129 37.4394 40.8185 36.9038 40.9615 36.4943L42.2589 32.4058C42.4019 31.9976 42.3148 31.3749 42.0665 31.02L41.6167 30.3752C44.0711 28.4941 46.6191 25.17 45.2047 21.1023ZM39.5224 33.2677C39.2974 33.4252 39.0436 33.5368 38.7755 33.5962C38.5074 33.6555 38.2302 33.6615 37.9597 33.6137C37.6893 33.5659 37.431 33.4652 37.1994 33.3176C36.9679 33.1699 36.7678 32.978 36.6104 32.7529C36.2918 32.2975 36.1669 31.7342 36.2632 31.1868C36.3595 30.6394 36.669 30.1525 37.1239 29.8331C37.4805 29.5833 37.9063 29.4511 38.3416 29.4551C38.777 29.459 39.2003 29.5989 39.5523 29.8552C39.1987 30.0684 38.9556 30.1932 38.9101 30.2127C38.749 30.2896 38.6187 30.4189 38.5406 30.5794C38.4626 30.74 38.4414 30.9223 38.4805 31.0965C38.5196 31.2707 38.6168 31.4264 38.756 31.5382C38.8952 31.6499 39.0683 31.7111 39.2468 31.7116C39.3586 31.7116 39.473 31.6856 39.5809 31.6349C39.8331 31.5153 40.1035 31.3736 40.3856 31.2059C40.4505 31.596 40.4039 31.9965 40.2512 32.3612C40.0985 32.726 39.8459 33.0402 39.5224 33.2677Z" fill="white"/>
</g>
<defs>
<clipPath id="clip0_1178_1833">
<rect width="26" height="26" fill="white" transform="translate(20 20.5759)"/>
</clipPath>
</defs>
</svg>
