<svg width="65" height="66" viewBox="0 0 65 66" fill="none" xmlns="http://www.w3.org/2000/svg">
<circle cx="32.5" cy="32.6077" r="32.5" fill="#0156FF"/>
<path d="M32.9111 20.5C26.1059 20.5 20.5693 26.0365 20.5693 32.8418V37.955C20.5693 39.2188 21.6764 40.2468 23.0377 40.2468H24.2719C24.5992 40.2468 24.9131 40.1168 25.1446 39.8854C25.376 39.6539 25.506 39.34 25.506 39.0127V32.6653C25.506 32.338 25.376 32.024 25.1446 31.7926C24.9131 31.5611 24.5992 31.4311 24.2719 31.4311H23.1512C23.8374 26.6548 27.9472 22.9684 32.9111 22.9684C37.875 22.9684 41.9848 26.6548 42.671 31.4311H41.5504C41.223 31.4311 40.9091 31.5611 40.6777 31.7926C40.4462 32.024 40.3162 32.338 40.3162 32.6653V40.2468C40.3162 41.6081 39.2091 42.7152 37.8478 42.7152H35.3795V41.481H30.4428V45.1835H37.8478C40.5704 45.1835 42.7845 42.9694 42.7845 40.2468C44.1458 40.2468 45.2529 39.2188 45.2529 37.955V32.8418C45.2529 26.0365 39.7164 20.5 32.9111 20.5Z" fill="white"/>
</svg>
